<mxfile host="Electron" agent="Mozilla/5.0 (Windows NT 10.0; Win64; x64) AppleWebKit/537.36 (KHTML, like Gecko) draw.io/25.0.2 Chrome/128.0.6613.186 Electron/32.2.5 Safari/537.36" version="25.0.2" pages="2">
  <diagram name="Página-1" id="MeCxbAPP1xPPwm_5GfIr">
    <mxGraphModel dx="1036" dy="614" grid="1" gridSize="10" guides="1" tooltips="1" connect="1" arrows="1" fold="1" page="1" pageScale="1" pageWidth="827" pageHeight="1169" math="0" shadow="0">
      <root>
        <mxCell id="0" />
        <mxCell id="1" parent="0" />
        <mxCell id="1Pyo-ZWDgQSXJpbwoLBI-2" value="" style="endArrow=classic;html=1;rounded=0;exitX=0.5;exitY=1;exitDx=0;exitDy=0;" parent="1" edge="1">
          <mxGeometry width="50" height="50" relative="1" as="geometry">
            <mxPoint x="414" y="70" as="sourcePoint" />
            <mxPoint x="414" y="100" as="targetPoint" />
          </mxGeometry>
        </mxCell>
        <mxCell id="1Pyo-ZWDgQSXJpbwoLBI-9" value="" style="edgeStyle=orthogonalEdgeStyle;rounded=0;orthogonalLoop=1;jettySize=auto;html=1;" parent="1" source="1Pyo-ZWDgQSXJpbwoLBI-5" target="1Pyo-ZWDgQSXJpbwoLBI-7" edge="1">
          <mxGeometry relative="1" as="geometry" />
        </mxCell>
        <mxCell id="1Pyo-ZWDgQSXJpbwoLBI-5" value="&lt;font style=&quot;font-size: 15px;&quot;&gt;N1, N2&lt;/font&gt;" style="html=1;strokeWidth=2;shape=manualInput;whiteSpace=wrap;rounded=1;size=26;arcSize=11;" parent="1" vertex="1">
          <mxGeometry x="364" y="90" width="100" height="60" as="geometry" />
        </mxCell>
        <mxCell id="1Pyo-ZWDgQSXJpbwoLBI-6" value="&lt;b&gt;&lt;font style=&quot;font-size: 18px;&quot;&gt;INÍCIO&lt;/font&gt;&lt;/b&gt;" style="strokeWidth=2;html=1;shape=mxgraph.flowchart.start_1;whiteSpace=wrap;fillColor=#fff2cc;strokeColor=#d6b656;" parent="1" vertex="1">
          <mxGeometry x="364" y="10" width="100" height="60" as="geometry" />
        </mxCell>
        <mxCell id="1Pyo-ZWDgQSXJpbwoLBI-13" value="" style="edgeStyle=orthogonalEdgeStyle;rounded=0;orthogonalLoop=1;jettySize=auto;html=1;" parent="1" source="1Pyo-ZWDgQSXJpbwoLBI-7" target="1Pyo-ZWDgQSXJpbwoLBI-12" edge="1">
          <mxGeometry relative="1" as="geometry" />
        </mxCell>
        <mxCell id="1Pyo-ZWDgQSXJpbwoLBI-7" value="&lt;font style=&quot;font-size: 15px;&quot;&gt;MÉDIA =&lt;/font&gt;&lt;div&gt;&lt;font style=&quot;font-size: 15px;&quot;&gt;(N1+N2)/2&lt;/font&gt;&lt;/div&gt;" style="rounded=0;whiteSpace=wrap;html=1;" parent="1" vertex="1">
          <mxGeometry x="354" y="180" width="120" height="60" as="geometry" />
        </mxCell>
        <mxCell id="1Pyo-ZWDgQSXJpbwoLBI-20" value="" style="edgeStyle=orthogonalEdgeStyle;rounded=0;orthogonalLoop=1;jettySize=auto;html=1;" parent="1" source="1Pyo-ZWDgQSXJpbwoLBI-12" target="1Pyo-ZWDgQSXJpbwoLBI-18" edge="1">
          <mxGeometry relative="1" as="geometry" />
        </mxCell>
        <mxCell id="1Pyo-ZWDgQSXJpbwoLBI-12" value="&lt;font style=&quot;font-size: 15px;&quot;&gt;MÉDIA &amp;gt;0&amp;nbsp;&lt;/font&gt;&lt;div&gt;&lt;font style=&quot;font-size: 15px;&quot;&gt;e&amp;nbsp;&lt;/font&gt;&lt;span style=&quot;font-size: 15px; background-color: initial;&quot;&gt;&amp;lt;=4&lt;/span&gt;&lt;/div&gt;" style="strokeWidth=2;html=1;shape=mxgraph.flowchart.decision;whiteSpace=wrap;" parent="1" vertex="1">
          <mxGeometry x="364" y="270" width="100" height="100" as="geometry" />
        </mxCell>
        <mxCell id="1Pyo-ZWDgQSXJpbwoLBI-14" value="" style="endArrow=classic;html=1;rounded=0;exitX=1;exitY=0.5;exitDx=0;exitDy=0;exitPerimeter=0;" parent="1" source="1Pyo-ZWDgQSXJpbwoLBI-12" edge="1">
          <mxGeometry width="50" height="50" relative="1" as="geometry">
            <mxPoint x="390" y="430" as="sourcePoint" />
            <mxPoint x="520" y="320" as="targetPoint" />
          </mxGeometry>
        </mxCell>
        <mxCell id="C7-hICauOdjSMZ7aPNtt-21" style="edgeStyle=orthogonalEdgeStyle;rounded=0;orthogonalLoop=1;jettySize=auto;html=1;entryX=0.5;entryY=1;entryDx=0;entryDy=0;entryPerimeter=0;" edge="1" parent="1" target="C7-hICauOdjSMZ7aPNtt-7">
          <mxGeometry relative="1" as="geometry">
            <mxPoint x="180" y="800" as="targetPoint" />
            <mxPoint x="210" y="330" as="sourcePoint" />
            <Array as="points">
              <mxPoint x="200" y="340" />
              <mxPoint x="200" y="320" />
              <mxPoint x="180" y="320" />
              <mxPoint x="180" y="760" />
              <mxPoint x="414" y="760" />
            </Array>
          </mxGeometry>
        </mxCell>
        <mxCell id="1Pyo-ZWDgQSXJpbwoLBI-18" value="&lt;font style=&quot;font-size: 15px;&quot;&gt;REPROVADO&lt;/font&gt;" style="strokeWidth=2;html=1;shape=mxgraph.flowchart.document2;whiteSpace=wrap;size=0.25;" parent="1" vertex="1">
          <mxGeometry x="200" y="290" width="110" height="60" as="geometry" />
        </mxCell>
        <mxCell id="1Pyo-ZWDgQSXJpbwoLBI-25" style="edgeStyle=orthogonalEdgeStyle;rounded=0;orthogonalLoop=1;jettySize=auto;html=1;exitX=0.5;exitY=1;exitDx=0;exitDy=0;exitPerimeter=0;" parent="1" source="1Pyo-ZWDgQSXJpbwoLBI-21" target="1Pyo-ZWDgQSXJpbwoLBI-24" edge="1">
          <mxGeometry relative="1" as="geometry" />
        </mxCell>
        <mxCell id="1Pyo-ZWDgQSXJpbwoLBI-21" value="&lt;font style=&quot;font-size: 15px;&quot;&gt;MÉDIA &amp;gt;4&amp;nbsp;&lt;/font&gt;&lt;div&gt;&lt;font style=&quot;font-size: 15px;&quot;&gt;e &amp;lt;=6&lt;/font&gt;&lt;/div&gt;" style="strokeWidth=2;html=1;shape=mxgraph.flowchart.decision;whiteSpace=wrap;" parent="1" vertex="1">
          <mxGeometry x="520" y="270" width="100" height="100" as="geometry" />
        </mxCell>
        <mxCell id="C7-hICauOdjSMZ7aPNtt-22" style="edgeStyle=orthogonalEdgeStyle;rounded=0;orthogonalLoop=1;jettySize=auto;html=1;entryX=1;entryY=0.5;entryDx=0;entryDy=0;entryPerimeter=0;exitX=0.553;exitY=0.77;exitDx=0;exitDy=0;exitPerimeter=0;" edge="1" parent="1" source="1Pyo-ZWDgQSXJpbwoLBI-22" target="C7-hICauOdjSMZ7aPNtt-7">
          <mxGeometry relative="1" as="geometry">
            <mxPoint x="700" y="730" as="targetPoint" />
            <Array as="points">
              <mxPoint x="710" y="406" />
              <mxPoint x="710" y="710" />
            </Array>
          </mxGeometry>
        </mxCell>
        <mxCell id="1Pyo-ZWDgQSXJpbwoLBI-22" value="&lt;font style=&quot;font-size: 15px;&quot;&gt;RECUPERAÇÃO&lt;/font&gt;" style="strokeWidth=2;html=1;shape=mxgraph.flowchart.document2;whiteSpace=wrap;size=0.25;" parent="1" vertex="1">
          <mxGeometry x="640" y="360" width="120" height="60" as="geometry" />
        </mxCell>
        <mxCell id="1Pyo-ZWDgQSXJpbwoLBI-23" style="edgeStyle=orthogonalEdgeStyle;rounded=0;orthogonalLoop=1;jettySize=auto;html=1;exitX=1;exitY=0.5;exitDx=0;exitDy=0;exitPerimeter=0;entryX=0.5;entryY=0;entryDx=0;entryDy=0;entryPerimeter=0;" parent="1" source="1Pyo-ZWDgQSXJpbwoLBI-21" target="1Pyo-ZWDgQSXJpbwoLBI-22" edge="1">
          <mxGeometry relative="1" as="geometry" />
        </mxCell>
        <mxCell id="C7-hICauOdjSMZ7aPNtt-3" value="" style="edgeStyle=orthogonalEdgeStyle;rounded=0;orthogonalLoop=1;jettySize=auto;html=1;" edge="1" parent="1" source="1Pyo-ZWDgQSXJpbwoLBI-24" target="C7-hICauOdjSMZ7aPNtt-2">
          <mxGeometry relative="1" as="geometry" />
        </mxCell>
        <mxCell id="C7-hICauOdjSMZ7aPNtt-5" value="" style="edgeStyle=orthogonalEdgeStyle;rounded=0;orthogonalLoop=1;jettySize=auto;html=1;" edge="1" parent="1" source="1Pyo-ZWDgQSXJpbwoLBI-24" target="C7-hICauOdjSMZ7aPNtt-4">
          <mxGeometry relative="1" as="geometry" />
        </mxCell>
        <mxCell id="1Pyo-ZWDgQSXJpbwoLBI-24" value="&lt;font style=&quot;font-size: 15px;&quot;&gt;MÉDIA &amp;gt;6&amp;nbsp;&lt;/font&gt;&lt;div&gt;&lt;font style=&quot;font-size: 15px;&quot;&gt;e &amp;lt;=10&lt;/font&gt;&lt;/div&gt;" style="strokeWidth=2;html=1;shape=mxgraph.flowchart.decision;whiteSpace=wrap;" parent="1" vertex="1">
          <mxGeometry x="364" y="420" width="100" height="100" as="geometry" />
        </mxCell>
        <mxCell id="C7-hICauOdjSMZ7aPNtt-12" style="edgeStyle=orthogonalEdgeStyle;rounded=0;orthogonalLoop=1;jettySize=auto;html=1;entryX=0;entryY=0.5;entryDx=0;entryDy=0;entryPerimeter=0;exitX=0.465;exitY=0.834;exitDx=0;exitDy=0;exitPerimeter=0;" edge="1" parent="1" source="C7-hICauOdjSMZ7aPNtt-2" target="C7-hICauOdjSMZ7aPNtt-7">
          <mxGeometry relative="1" as="geometry">
            <mxPoint x="260" y="841.5999755859375" as="targetPoint" />
            <Array as="points">
              <mxPoint x="255" y="493" />
              <mxPoint x="255" y="710" />
            </Array>
          </mxGeometry>
        </mxCell>
        <mxCell id="C7-hICauOdjSMZ7aPNtt-2" value="&lt;font style=&quot;font-size: 15px;&quot;&gt;APROVADO&lt;/font&gt;" style="shape=document;whiteSpace=wrap;html=1;boundedLbl=1;strokeWidth=2;" vertex="1" parent="1">
          <mxGeometry x="200" y="435" width="110" height="70" as="geometry" />
        </mxCell>
        <mxCell id="C7-hICauOdjSMZ7aPNtt-8" value="" style="edgeStyle=orthogonalEdgeStyle;rounded=0;orthogonalLoop=1;jettySize=auto;html=1;exitX=0.503;exitY=0.848;exitDx=0;exitDy=0;exitPerimeter=0;" edge="1" parent="1" source="C7-hICauOdjSMZ7aPNtt-4" target="C7-hICauOdjSMZ7aPNtt-7">
          <mxGeometry relative="1" as="geometry" />
        </mxCell>
        <mxCell id="C7-hICauOdjSMZ7aPNtt-4" value="&lt;font style=&quot;font-size: 15px;&quot;&gt;INFORMAÇÃO&lt;/font&gt;&lt;div&gt;&lt;font style=&quot;font-size: 15px;&quot;&gt;INVÁLIDA&lt;/font&gt;&lt;/div&gt;" style="shape=document;whiteSpace=wrap;html=1;boundedLbl=1;strokeWidth=2;" vertex="1" parent="1">
          <mxGeometry x="354" y="560" width="120" height="80" as="geometry" />
        </mxCell>
        <mxCell id="C7-hICauOdjSMZ7aPNtt-7" value="&lt;b&gt;&lt;font style=&quot;font-size: 18px;&quot;&gt;FIM&lt;/font&gt;&lt;/b&gt;" style="strokeWidth=2;html=1;shape=mxgraph.flowchart.start_1;whiteSpace=wrap;fillColor=#fff2cc;strokeColor=#d6b656;" vertex="1" parent="1">
          <mxGeometry x="364" y="680" width="100" height="60" as="geometry" />
        </mxCell>
        <mxCell id="C7-hICauOdjSMZ7aPNtt-14" value="SIM" style="text;strokeColor=none;align=center;fillColor=none;html=1;verticalAlign=middle;whiteSpace=wrap;rounded=0;fontColor=#0000FF;" vertex="1" parent="1">
          <mxGeometry x="310" y="290" width="60" height="30" as="geometry" />
        </mxCell>
        <mxCell id="C7-hICauOdjSMZ7aPNtt-15" value="NÃO" style="text;strokeColor=none;align=center;fillColor=none;html=1;verticalAlign=middle;whiteSpace=wrap;rounded=0;fontColor=#FF0F0F;" vertex="1" parent="1">
          <mxGeometry x="460" y="290" width="60" height="30" as="geometry" />
        </mxCell>
        <mxCell id="C7-hICauOdjSMZ7aPNtt-17" value="SIM&lt;span style=&quot;font-family: monospace; font-size: 0px; text-align: start; text-wrap: nowrap;&quot;&gt;%3CmxGraphModel%3E%3Croot%3E%3CmxCell%20id%3D%220%22%2F%3E%3CmxCell%20id%3D%221%22%20parent%3D%220%22%2F%3E%3CmxCell%20id%3D%222%22%20value%3D%22N%C3%83O%22%20style%3D%22text%3BstrokeColor%3Dnone%3Balign%3Dcenter%3BfillColor%3Dnone%3Bhtml%3D1%3BverticalAlign%3Dmiddle%3BwhiteSpace%3Dwrap%3Brounded%3D0%3B%22%20vertex%3D%221%22%20parent%3D%221%22%3E%3CmxGeometry%20x%3D%22460%22%20y%3D%22290%22%20width%3D%2260%22%20height%3D%2230%22%20as%3D%22geometry%22%2F%3E%3C%2FmxCell%3E%3C%2Froot%3E%3C%2FmxGraphModel%3E&lt;/span&gt;&lt;span style=&quot;font-family: monospace; font-size: 0px; text-align: start; text-wrap: nowrap;&quot;&gt;%3CmxGraphModel%3E%3Croot%3E%3CmxCell%20id%3D%220%22%2F%3E%3CmxCell%20id%3D%221%22%20parent%3D%220%22%2F%3E%3CmxCell%20id%3D%222%22%20value%3D%22N%C3%83O%22%20style%3D%22text%3BstrokeColor%3Dnone%3Balign%3Dcenter%3BfillColor%3Dnone%3Bhtml%3D1%3BverticalAlign%3Dmiddle%3BwhiteSpace%3Dwrap%3Brounded%3D0%3B%22%20vertex%3D%221%22%20parent%3D%221%22%3E%3CmxGeometry%20x%3D%22460%22%20y%3D%22290%22%20width%3D%2260%22%20height%3D%2230%22%20as%3D%22geometry%22%2F%3E%3C%2FmxCell%3E%3C%2Froot%3E%3C%2FmxGraphModel%3E&lt;/span&gt;" style="text;strokeColor=none;align=center;fillColor=none;html=1;verticalAlign=middle;whiteSpace=wrap;rounded=0;fontColor=#0000FF;" vertex="1" parent="1">
          <mxGeometry x="630" y="290" width="60" height="30" as="geometry" />
        </mxCell>
        <mxCell id="C7-hICauOdjSMZ7aPNtt-18" value="NÃO" style="text;strokeColor=none;align=center;fillColor=none;html=1;verticalAlign=middle;whiteSpace=wrap;rounded=0;fontColor=#FF0F0F;" vertex="1" parent="1">
          <mxGeometry x="460" y="370" width="60" height="30" as="geometry" />
        </mxCell>
        <mxCell id="C7-hICauOdjSMZ7aPNtt-19" value="SIM" style="text;strokeColor=none;align=center;fillColor=none;html=1;verticalAlign=middle;whiteSpace=wrap;rounded=0;fontColor=#0000FF;" vertex="1" parent="1">
          <mxGeometry x="310" y="440" width="60" height="30" as="geometry" />
        </mxCell>
        <mxCell id="C7-hICauOdjSMZ7aPNtt-20" value="NÃO" style="text;strokeColor=none;align=center;fillColor=none;html=1;verticalAlign=middle;whiteSpace=wrap;rounded=0;fontColor=#ff0000;" vertex="1" parent="1">
          <mxGeometry x="404" y="520" width="60" height="30" as="geometry" />
        </mxCell>
      </root>
    </mxGraphModel>
  </diagram>
  <diagram id="DE0JwbEpfoqgtl5FTX46" name="Página-2">
    <mxGraphModel dx="1036" dy="614" grid="1" gridSize="10" guides="1" tooltips="1" connect="1" arrows="1" fold="1" page="1" pageScale="1" pageWidth="827" pageHeight="1169" math="0" shadow="0">
      <root>
        <mxCell id="0" />
        <mxCell id="1" parent="0" />
        <mxCell id="fAPWjBFY4ca5wBM_r_EV-3" value="" style="edgeStyle=orthogonalEdgeStyle;rounded=0;orthogonalLoop=1;jettySize=auto;html=1;" edge="1" parent="1" source="fAPWjBFY4ca5wBM_r_EV-1">
          <mxGeometry relative="1" as="geometry">
            <mxPoint x="414" y="110" as="targetPoint" />
          </mxGeometry>
        </mxCell>
        <mxCell id="fAPWjBFY4ca5wBM_r_EV-1" value="&lt;b&gt;&lt;font style=&quot;font-size: 18px;&quot;&gt;INÍCIO&lt;/font&gt;&lt;/b&gt;" style="strokeWidth=2;html=1;shape=mxgraph.flowchart.start_1;whiteSpace=wrap;fillColor=#fff2cc;strokeColor=#d6b656;" vertex="1" parent="1">
          <mxGeometry x="364" y="10" width="100" height="60" as="geometry" />
        </mxCell>
        <mxCell id="fAPWjBFY4ca5wBM_r_EV-6" value="" style="edgeStyle=orthogonalEdgeStyle;rounded=0;orthogonalLoop=1;jettySize=auto;html=1;" edge="1" parent="1" source="fAPWjBFY4ca5wBM_r_EV-4" target="fAPWjBFY4ca5wBM_r_EV-5">
          <mxGeometry relative="1" as="geometry" />
        </mxCell>
        <mxCell id="fAPWjBFY4ca5wBM_r_EV-4" value="VALOR 1" style="html=1;strokeWidth=2;shape=manualInput;whiteSpace=wrap;rounded=1;size=26;arcSize=11;" vertex="1" parent="1">
          <mxGeometry x="364" y="100" width="100" height="60" as="geometry" />
        </mxCell>
        <mxCell id="fAPWjBFY4ca5wBM_r_EV-9" value="" style="edgeStyle=orthogonalEdgeStyle;rounded=0;orthogonalLoop=1;jettySize=auto;html=1;" edge="1" parent="1" source="fAPWjBFY4ca5wBM_r_EV-5" target="fAPWjBFY4ca5wBM_r_EV-8">
          <mxGeometry relative="1" as="geometry" />
        </mxCell>
        <mxCell id="HhO4ytI-2TwqqnQ1nF5Q-2" value="" style="edgeStyle=orthogonalEdgeStyle;rounded=0;orthogonalLoop=1;jettySize=auto;html=1;" edge="1" parent="1" source="fAPWjBFY4ca5wBM_r_EV-5" target="HhO4ytI-2TwqqnQ1nF5Q-1">
          <mxGeometry relative="1" as="geometry" />
        </mxCell>
        <mxCell id="fAPWjBFY4ca5wBM_r_EV-5" value="VALOR1&lt;div&gt;==&amp;nbsp;&lt;span style=&quot;background-color: initial;&quot;&gt;0&lt;/span&gt;&lt;/div&gt;" style="rhombus;whiteSpace=wrap;html=1;strokeWidth=2;rounded=1;arcSize=11;" vertex="1" parent="1">
          <mxGeometry x="374" y="210" width="80" height="80" as="geometry" />
        </mxCell>
        <mxCell id="fAPWjBFY4ca5wBM_r_EV-10" style="edgeStyle=orthogonalEdgeStyle;rounded=0;orthogonalLoop=1;jettySize=auto;html=1;" edge="1" parent="1" source="fAPWjBFY4ca5wBM_r_EV-8">
          <mxGeometry relative="1" as="geometry">
            <mxPoint x="470" y="130" as="targetPoint" />
            <Array as="points">
              <mxPoint x="574" y="130" />
            </Array>
          </mxGeometry>
        </mxCell>
        <mxCell id="fAPWjBFY4ca5wBM_r_EV-8" value="&lt;font style=&quot;font-size: 15px;&quot;&gt;&quot;Valor inválido, digite um valor diferente de 0.&quot;&lt;/font&gt;" style="shape=document;whiteSpace=wrap;html=1;boundedLbl=1;strokeWidth=2;rounded=1;arcSize=11;" vertex="1" parent="1">
          <mxGeometry x="520" y="210" width="120" height="80" as="geometry" />
        </mxCell>
        <mxCell id="HhO4ytI-2TwqqnQ1nF5Q-6" value="" style="edgeStyle=orthogonalEdgeStyle;rounded=0;orthogonalLoop=1;jettySize=auto;html=1;" edge="1" parent="1" source="HhO4ytI-2TwqqnQ1nF5Q-1" target="HhO4ytI-2TwqqnQ1nF5Q-5">
          <mxGeometry relative="1" as="geometry" />
        </mxCell>
        <mxCell id="HhO4ytI-2TwqqnQ1nF5Q-8" value="" style="edgeStyle=orthogonalEdgeStyle;rounded=0;orthogonalLoop=1;jettySize=auto;html=1;" edge="1" parent="1" source="HhO4ytI-2TwqqnQ1nF5Q-1" target="HhO4ytI-2TwqqnQ1nF5Q-7">
          <mxGeometry relative="1" as="geometry" />
        </mxCell>
        <mxCell id="HhO4ytI-2TwqqnQ1nF5Q-1" value="VALOR1&lt;div&gt;&amp;gt;0&lt;/div&gt;" style="rhombus;whiteSpace=wrap;html=1;strokeWidth=2;rounded=1;arcSize=11;" vertex="1" parent="1">
          <mxGeometry x="220" y="210" width="80" height="80" as="geometry" />
        </mxCell>
        <mxCell id="HhO4ytI-2TwqqnQ1nF5Q-3" value="&lt;font color=&quot;#0000ff&quot;&gt;SIM&lt;/font&gt;" style="text;strokeColor=none;align=center;fillColor=none;html=1;verticalAlign=middle;whiteSpace=wrap;rounded=0;" vertex="1" parent="1">
          <mxGeometry x="450" y="220" width="60" height="30" as="geometry" />
        </mxCell>
        <mxCell id="HhO4ytI-2TwqqnQ1nF5Q-4" value="&lt;font color=&quot;#ff0f0f&quot;&gt;NÃO&lt;/font&gt;" style="text;strokeColor=none;align=center;fillColor=none;html=1;verticalAlign=middle;whiteSpace=wrap;rounded=0;" vertex="1" parent="1">
          <mxGeometry x="320" y="220" width="60" height="30" as="geometry" />
        </mxCell>
        <mxCell id="HhO4ytI-2TwqqnQ1nF5Q-11" style="edgeStyle=orthogonalEdgeStyle;rounded=0;orthogonalLoop=1;jettySize=auto;html=1;entryX=0.5;entryY=1;entryDx=0;entryDy=0;entryPerimeter=0;exitX=0.542;exitY=0.801;exitDx=0;exitDy=0;exitPerimeter=0;" edge="1" parent="1" source="HhO4ytI-2TwqqnQ1nF5Q-5" target="HhO4ytI-2TwqqnQ1nF5Q-9">
          <mxGeometry relative="1" as="geometry">
            <mxPoint x="140" y="500" as="targetPoint" />
            <Array as="points">
              <mxPoint x="105" y="273" />
              <mxPoint x="105" y="490" />
              <mxPoint x="414" y="490" />
            </Array>
          </mxGeometry>
        </mxCell>
        <mxCell id="HhO4ytI-2TwqqnQ1nF5Q-5" value="&lt;font style=&quot;font-size: 15px;&quot;&gt;&quot;Valor positivo.&quot;&lt;/font&gt;" style="shape=document;whiteSpace=wrap;html=1;boundedLbl=1;strokeWidth=2;rounded=1;arcSize=11;" vertex="1" parent="1">
          <mxGeometry x="50" y="212.5" width="110" height="75" as="geometry" />
        </mxCell>
        <mxCell id="HhO4ytI-2TwqqnQ1nF5Q-7" value="&lt;font style=&quot;font-size: 15px;&quot;&gt;&quot;Valor negativo.&quot;&lt;/font&gt;" style="shape=document;whiteSpace=wrap;html=1;boundedLbl=1;strokeWidth=2;rounded=1;arcSize=11;" vertex="1" parent="1">
          <mxGeometry x="200" y="330" width="120" height="70" as="geometry" />
        </mxCell>
        <mxCell id="HhO4ytI-2TwqqnQ1nF5Q-9" value="&lt;b&gt;&lt;font style=&quot;font-size: 18px;&quot;&gt;FIM&lt;/font&gt;&lt;/b&gt;" style="strokeWidth=2;html=1;shape=mxgraph.flowchart.start_1;whiteSpace=wrap;fillColor=#fff2cc;strokeColor=#d6b656;" vertex="1" parent="1">
          <mxGeometry x="364" y="410" width="100" height="60" as="geometry" />
        </mxCell>
        <mxCell id="HhO4ytI-2TwqqnQ1nF5Q-10" style="edgeStyle=orthogonalEdgeStyle;rounded=0;orthogonalLoop=1;jettySize=auto;html=1;entryX=0;entryY=0.5;entryDx=0;entryDy=0;entryPerimeter=0;exitX=0.493;exitY=0.883;exitDx=0;exitDy=0;exitPerimeter=0;" edge="1" parent="1" source="HhO4ytI-2TwqqnQ1nF5Q-7" target="HhO4ytI-2TwqqnQ1nF5Q-9">
          <mxGeometry relative="1" as="geometry">
            <Array as="points">
              <mxPoint x="259" y="440" />
            </Array>
          </mxGeometry>
        </mxCell>
        <mxCell id="HhO4ytI-2TwqqnQ1nF5Q-12" value="&lt;font color=&quot;#ff0f0f&quot;&gt;NÃO&lt;/font&gt;" style="text;strokeColor=none;align=center;fillColor=none;html=1;verticalAlign=middle;whiteSpace=wrap;rounded=0;" vertex="1" parent="1">
          <mxGeometry x="250" y="290" width="60" height="30" as="geometry" />
        </mxCell>
        <mxCell id="HhO4ytI-2TwqqnQ1nF5Q-13" value="&lt;font color=&quot;#0000ff&quot;&gt;SIM&lt;/font&gt;" style="text;strokeColor=none;align=center;fillColor=none;html=1;verticalAlign=middle;whiteSpace=wrap;rounded=0;" vertex="1" parent="1">
          <mxGeometry x="170" y="220" width="60" height="30" as="geometry" />
        </mxCell>
      </root>
    </mxGraphModel>
  </diagram>
</mxfile>
